<svg width="21" height="24" viewBox="0 0 21 24" fill="none" xmlns="http://www.w3.org/2000/svg">
<path d="M10.5133 5.63418C10.5634 4.31981 10.9461 3.16531 11.6524 2.20022C12.3623 1.23024 13.5358 0.541202 15.1423 0.150764C15.153 0.198497 15.1641 0.246258 15.1756 0.293837V0.54357C15.1756 1.10985 15.0333 1.75919 14.7523 2.47344C14.4579 3.165 13.9977 3.81588 13.3865 4.4033C12.8148 4.92091 12.286 5.26358 11.8186 5.41849C11.6642 5.46296 11.4527 5.50672 11.1972 5.54612C10.9699 5.58028 10.7419 5.60962 10.5133 5.63418Z" fill="black"/>
<path d="M10.7812 7.58446C8.9666 7.58446 7.70677 6.036 5.91686 6.036C4.12702 6.036 0.439575 7.62345 0.439575 13.1039C0.439575 18.5844 3.71407 22.1155 4.08026 22.5278C4.44651 22.9401 5.29351 24 6.60571 24C7.91798 24 9.35458 22.9932 10.7812 22.9932C12.2077 22.9932 14.0033 24 15.1755 24C16.3478 24 16.8299 23.5389 17.6277 22.7436C18.4255 21.9482 19.9472 19.5212 20.4786 18.0645C19.6033 17.5617 17.2832 16.1968 17.2832 13.1039C17.2832 11.042 18.0641 9.32906 19.626 7.96507C18.6013 6.679 17.413 6.036 16.0609 6.036C14.0327 6.036 12.5957 7.58446 10.7812 7.58446Z" fill="black"/>
</svg>
