<svg width="25" height="25" viewBox="0 0 25 25" fill="none" xmlns="http://www.w3.org/2000/svg">
<rect width="25" height="25" rx="9" fill="#AB82FF"/>
<g clip-path="url(#clip0_2007_154)">
<path d="M11.2457 16.5967H9.3056C9.21351 16.5967 9.12519 16.5601 9.06008 16.495C8.99496 16.4299 8.95838 16.3416 8.95838 16.2495V14.3094C8.95822 14.2643 8.96695 14.2196 8.98408 14.1779C9.00121 14.1362 9.0264 14.0983 9.0582 14.0663L14.2665 8.85797C14.2988 8.82516 14.3374 8.7991 14.3798 8.78132C14.4223 8.76354 14.4679 8.75438 14.5139 8.75438C14.56 8.75438 14.6056 8.76354 14.648 8.78132C14.6905 8.7991 14.729 8.82516 14.7613 8.85797L16.6971 10.7937C16.7299 10.826 16.756 10.8646 16.7737 10.907C16.7915 10.9495 16.8007 10.9951 16.8007 11.0411C16.8007 11.0872 16.7915 11.1328 16.7737 11.1752C16.756 11.2177 16.7299 11.2562 16.6971 11.2885L11.4888 16.4969C11.4568 16.5287 11.4189 16.5538 11.3772 16.571C11.3355 16.5881 11.2908 16.5968 11.2457 16.5967V16.5967Z" stroke="white" stroke-width="0.8" stroke-linecap="round" stroke-linejoin="round"/>
<path d="M13.1251 9.99945L15.5557 12.43" stroke="white" stroke-width="0.8" stroke-linecap="round" stroke-linejoin="round"/>
</g>
<defs>
<clipPath id="clip0_2007_154">
<rect width="11.1111" height="11.1111" fill="white" transform="translate(7.22229 7.22168)"/>
</clipPath>
</defs>
</svg>
