<svg width="22" height="22" viewBox="0 0 22 22" fill="none" xmlns="http://www.w3.org/2000/svg">
<path d="M9.52566 1.65141C10.3167 0.782862 11.6833 0.782862 12.4743 1.65141L13.4915 2.76833C13.8912 3.2073 14.4658 3.44529 15.0589 3.41757L16.568 3.34705C17.7414 3.2922 18.7078 4.25856 18.653 5.43205L18.5824 6.94108C18.5547 7.53415 18.7927 8.10873 19.2316 8.50849L20.3485 9.52566C21.2172 10.3167 21.2172 11.6833 20.3485 12.4743L19.2316 13.4915C18.7927 13.8912 18.5547 14.4658 18.5824 15.0589L18.653 16.568C18.7078 17.7414 17.7414 18.7078 16.568 18.653L15.0589 18.5824C14.4658 18.5547 13.8912 18.7927 13.4915 19.2316L12.4743 20.3485C11.6833 21.2172 10.3167 21.2172 9.52566 20.3485L8.50849 19.2316C8.10873 18.7927 7.53415 18.5547 6.94108 18.5824L5.43204 18.653C4.25856 18.7078 3.2922 17.7414 3.34705 16.568L3.41757 15.0589C3.44529 14.4658 3.2073 13.8912 2.76833 13.4915L1.65141 12.4743C0.782862 11.6833 0.782862 10.3167 1.65141 9.52566L2.76833 8.50849C3.2073 8.10873 3.44529 7.53415 3.41757 6.94108L3.34705 5.43204C3.2922 4.25856 4.25856 3.2922 5.43205 3.34705L6.94108 3.41757C7.53415 3.44529 8.10873 3.2073 8.50849 2.76833L9.52566 1.65141Z" stroke="black" stroke-width="1.53"/>
<path d="M8.00879 11L10.0029 12.9941L13.991 9.0059" stroke="black" stroke-width="1.53" stroke-linecap="round" stroke-linejoin="round"/>
</svg>
