<svg width="53" height="9" viewBox="0 0 53 9" fill="none" xmlns="http://www.w3.org/2000/svg">
<path d="M52.24 4.05263C52.24 1.8144 50.4256 0 48.1874 0C45.9492 0 44.1348 1.8144 44.1348 4.05263C44.1348 6.29086 45.9492 8.10526 48.1874 8.10526C50.4256 8.10526 52.24 6.29086 52.24 4.05263Z" fill="black" fill-opacity="0.33"/>
<path d="M41.24 4.05263C41.24 1.8144 39.4256 0 37.1874 0C34.9492 0 33.1348 1.8144 33.1348 4.05263C33.1348 6.29086 34.9492 8.10526 37.1874 8.10526C39.4256 8.10526 41.24 6.29086 41.24 4.05263Z" fill="black" fill-opacity="0.33"/>
<path d="M30.24 4.05263C30.24 1.8144 28.4256 0 26.1874 0C23.9492 0 22.1348 1.8144 22.1348 4.05263C22.1348 6.29086 23.9492 8.10526 26.1874 8.10526C28.4256 8.10526 30.24 6.29086 30.24 4.05263Z" fill="black" fill-opacity="0.33"/>
<path d="M19.24 4.05263C19.24 1.8144 17.4256 0 15.1874 0C12.9492 0 11.1348 1.8144 11.1348 4.05263C11.1348 6.29086 12.9492 8.10526 15.1874 8.10526C17.4256 8.10526 19.24 6.29086 19.24 4.05263Z" fill="black" fill-opacity="0.33"/>
<path d="M8.10526 4.05263C8.10526 1.8144 6.29086 0 4.05263 0C1.8144 0 0 1.8144 0 4.05263C0 6.29086 1.8144 8.10526 4.05263 8.10526C6.29086 8.10526 8.10526 6.29086 8.10526 4.05263Z" fill="#AB82FF"/>
</svg>
