<svg width="62" height="17" viewBox="0 0 62 17" fill="none" xmlns="http://www.w3.org/2000/svg">
<path fill-rule="evenodd" clip-rule="evenodd" d="M20.9375 8.3125C20.9375 5.6546 18.7829 3.5 16.125 3.5C13.4671 3.5 11.3125 5.6546 11.3125 8.3125C11.3125 10.9704 13.4671 13.125 16.125 13.125C18.7829 13.125 20.9375 10.9704 20.9375 8.3125ZM45.875 3.5C48.5329 3.5 50.6875 5.6546 50.6875 8.3125C50.6875 10.9704 48.5329 13.125 45.875 13.125C43.2171 13.125 41.0625 10.9704 41.0625 8.3125C41.0625 5.6546 43.2171 3.5 45.875 3.5Z" fill="#AB82FF"/>
<path fill-rule="evenodd" clip-rule="evenodd" d="M20.9375 8.3125C20.9375 5.6546 18.7829 3.5 16.125 3.5C13.4671 3.5 11.3125 5.6546 11.3125 8.3125C11.3125 10.9704 13.4671 13.125 16.125 13.125C18.7829 13.125 20.9375 10.9704 20.9375 8.3125ZM45.875 3.5C48.5329 3.5 50.6875 5.6546 50.6875 8.3125C50.6875 10.9704 48.5329 13.125 45.875 13.125C43.2171 13.125 41.0625 10.9704 41.0625 8.3125C41.0625 5.6546 43.2171 3.5 45.875 3.5Z" fill="white"/>
<path d="M61.625 8.3125C61.625 5.6546 59.4704 3.5 56.8125 3.5C54.1546 3.5 52 5.6546 52 8.3125C52 10.9704 54.1546 13.125 56.8125 13.125C59.4704 13.125 61.625 10.9704 61.625 8.3125Z" fill="#AB82FF"/>
<path d="M61.625 8.3125C61.625 5.6546 59.4704 3.5 56.8125 3.5C54.1546 3.5 52 5.6546 52 8.3125C52 10.9704 54.1546 13.125 56.8125 13.125C59.4704 13.125 61.625 10.9704 61.625 8.3125Z" fill="white"/>
<path d="M9.625 8.3125C9.625 5.6546 7.4704 3.5 4.8125 3.5C2.1546 3.5 0 5.6546 0 8.3125C0 10.9704 2.1546 13.125 4.8125 13.125C7.4704 13.125 9.625 10.9704 9.625 8.3125Z" fill="#AB82FF"/>
<path d="M9.625 8.3125C9.625 5.6546 7.4704 3.5 4.8125 3.5C2.1546 3.5 0 5.6546 0 8.3125C0 10.9704 2.1546 13.125 4.8125 13.125C7.4704 13.125 9.625 10.9704 9.625 8.3125Z" fill="white"/>
<path d="M31 0C35.5909 0 39.3125 3.72164 39.3125 8.3125C39.3125 12.9034 35.5909 16.625 31 16.625C26.4091 16.625 22.6875 12.9034 22.6875 8.3125C22.6875 3.72164 26.4091 0 31 0Z" fill="#AB82FF"/>
</svg>
