<svg width="18" height="21" viewBox="0 0 18 21" fill="none" xmlns="http://www.w3.org/2000/svg">
<path d="M9 11.75C10.6569 11.75 12 10.4069 12 8.75C12 7.09315 10.6569 5.75 9 5.75C7.34315 5.75 6 7.09315 6 8.75C6 10.4069 7.34315 11.75 9 11.75Z" stroke="black" stroke-width="1.5" stroke-linecap="round" stroke-linejoin="round"/>
<path d="M17 8.30769C17 14.8846 9 20 9 20C9 20 1 14.8846 1 8.30769C1 6.36957 1.84285 4.51083 3.34315 3.14037C4.84344 1.76992 6.87827 1 9 1C11.1217 1 13.1566 1.76992 14.6569 3.14037C16.1571 4.51083 17 6.36957 17 8.30769V8.30769Z" stroke="black" stroke-width="1.5" stroke-linecap="round" stroke-linejoin="round"/>
</svg>
