<svg width="20" height="17" viewBox="0 0 20 17" fill="none" xmlns="http://www.w3.org/2000/svg">
<path d="M7.08296 9.21711L7.08305 9.21718C7.8423 9.77959 8.77672 10.0828 9.73563 10.0828C10.6945 10.0828 11.629 9.77959 12.3882 9.21718L12.3883 9.21714L18.3902 4.77012C18.5228 5.90841 18.6236 7.0591 18.6236 8.22297C18.6236 9.92295 18.411 11.5887 18.1933 13.2308C18.1229 13.7467 17.8689 14.2308 17.4648 14.6028C17.06 14.9755 16.5287 15.2127 15.9553 15.2704C15.9552 15.2704 15.9551 15.2704 15.955 15.2704L15.762 15.2894L15.7619 15.2894L15.7337 15.2921C13.7767 15.4837 11.7784 15.6792 9.73563 15.6792C7.69281 15.6792 5.69458 15.4837 3.73754 15.2921L3.70941 15.2894L3.70925 15.2894L3.5163 15.2704C3.51617 15.2704 3.51604 15.2704 3.51591 15.2704C2.94254 15.2127 2.41126 14.9754 2.00645 14.6028C1.60232 14.2308 1.34834 13.7467 1.27797 13.2308C1.06026 11.5873 0.847656 9.92294 0.847656 8.22297C0.847656 7.05878 0.948501 5.90777 1.08116 4.76917L7.08296 9.21711ZM0.977941 4.50383L0.957834 4.50141L0.977941 4.50383ZM17.5811 1.95751L10.6713 7.07624L10.6709 7.07652C10.408 7.27166 10.0785 7.3805 9.73563 7.3805C9.39272 7.3805 9.06327 7.27166 8.80035 7.07652L8.79998 7.07624L1.89001 1.95741C2.07052 1.76702 2.28413 1.60388 2.52344 1.47551C2.82681 1.31276 3.16409 1.20987 3.51417 1.17437L3.70595 1.15689L3.70595 1.1569L3.70959 1.15654C5.67502 0.962835 7.68293 0.766724 9.73563 0.766724C11.7883 0.766724 13.7962 0.962835 15.7617 1.15654L15.7619 1.15656L15.9551 1.17553C15.9552 1.17554 15.9554 1.17556 15.9555 1.17557C16.3061 1.21076 16.644 1.31355 16.9479 1.47637C17.187 1.60453 17.4006 1.7674 17.5811 1.95751Z" stroke="#AB82FF"/>
</svg>
