<svg width="12" height="12" viewBox="0 0 12 12" fill="none" xmlns="http://www.w3.org/2000/svg">
<g clip-path="url(#clip0_2264_290)">
<path d="M4.2457 9.59668H2.3056C2.21351 9.59668 2.12519 9.5601 2.06008 9.49499C1.99496 9.42987 1.95838 9.34155 1.95838 9.24946V7.30936C1.95822 7.26427 1.96695 7.21959 1.98408 7.17789C2.00121 7.13618 2.0264 7.09826 2.0582 7.0663L7.26654 1.85797C7.29885 1.82516 7.33736 1.7991 7.37983 1.78132C7.42231 1.76354 7.46789 1.75438 7.51394 1.75438C7.55998 1.75438 7.60557 1.76354 7.64804 1.78132C7.69051 1.7991 7.72902 1.82516 7.76133 1.85797L9.6971 3.79373C9.72991 3.82604 9.75596 3.86455 9.77374 3.90702C9.79153 3.9495 9.80069 3.99508 9.80069 4.04113C9.80069 4.08717 9.79153 4.13276 9.77374 4.17523C9.75596 4.2177 9.72991 4.25621 9.6971 4.28852L4.48876 9.49686C4.4568 9.52866 4.41888 9.55385 4.37717 9.57098C4.33547 9.58811 4.29079 9.59684 4.2457 9.59668V9.59668Z" stroke="white" stroke-width="0.8" stroke-linecap="round" stroke-linejoin="round"/>
<path d="M6.12512 2.99945L8.55568 5.43001" stroke="white" stroke-width="0.8" stroke-linecap="round" stroke-linejoin="round"/>
</g>
<defs>
<clipPath id="clip0_2264_290">
<rect width="11.1111" height="11.1111" fill="white" transform="translate(0.22229 0.22168)"/>
</clipPath>
</defs>
</svg>
