<svg width="33" height="33" viewBox="0 0 33 33" fill="none" xmlns="http://www.w3.org/2000/svg">
<path d="M0.633306 18.1793C-0.210743 17.1973 -0.211208 15.748 0.632547 14.7657C0.653076 14.7418 0.673605 14.718 0.694136 14.6941C2.67197 12.3946 3.8645 9.51985 4.09302 6.4954C4.1906 5.20416 5.21504 4.17907 6.50626 4.08111C9.53238 3.85153 12.4089 2.65906 14.71 0.680411C14.7286 0.664456 14.7472 0.648501 14.7657 0.632547C15.748 -0.211208 17.1973 -0.210743 18.1793 0.633306C20.5097 2.63622 23.4297 3.84866 26.4937 4.08111C27.7848 4.17907 28.8093 5.20416 28.9068 6.4954C29.1383 9.55769 30.3648 12.4918 32.3667 14.8207C33.2107 15.8028 33.2112 17.252 32.3674 18.2343C30.3672 20.5631 29.1383 23.4983 28.9068 26.5594C28.8093 27.8508 27.7848 28.8758 26.4937 28.9738C26.4692 28.9756 26.4447 28.9775 26.4203 28.9793C23.4013 29.2069 20.5308 30.3946 18.2343 32.3674C17.252 33.2112 15.8028 33.2107 14.8207 32.3667C12.5273 30.3954 9.6594 29.2101 6.64368 28.9841C6.59788 28.9807 6.55207 28.9772 6.50624 28.9738C5.21505 28.8758 4.1906 27.8508 4.09302 26.5594C3.86032 23.4799 2.64629 20.5214 0.633306 18.1793Z" fill="white"/>
<path d="M18.8038 9.71906C18.1219 9.25024 17.3201 9 16.5 9C15.4002 9 14.3455 9.44952 13.5678 10.2497C12.7902 11.0498 12.3533 12.1351 12.3533 13.2667C12.3533 14.1105 12.5965 14.9354 13.0521 15.6371C13.5078 16.3387 14.1554 16.8856 14.9131 17.2085C15.6708 17.5315 16.5046 17.616 17.309 17.4513C18.1134 17.2867 18.8523 16.8803 19.4322 16.2836C20.0121 15.6869 20.407 14.9267 20.567 14.099C20.727 13.2714 20.6449 12.4135 20.3311 11.6339C20.0172 10.8543 19.4857 10.1879 18.8038 9.71906Z" fill="#AB82FF"/>
<path d="M12.8886 24.1534C14.0146 24.7133 15.2494 25.0027 16.5 25C17.7515 25.0022 18.9871 24.7114 20.1133 24.1496C21.2394 23.5878 22.2266 22.7697 23 21.7573C21.0908 20.3943 18.8221 19.6648 16.4984 19.6667C14.1746 19.6686 11.9071 20.4018 10 21.768C10.7749 22.7779 11.7627 23.5935 12.8886 24.1534Z" fill="#AB82FF"/>
</svg>
