<svg width="114" height="24" viewBox="0 0 114 24" fill="none" xmlns="http://www.w3.org/2000/svg">
<path fill-rule="evenodd" clip-rule="evenodd" d="M5.22951 0C4.03558 0 2.89055 0.459739 2.04631 1.27808C1.20207 2.09642 0.727783 3.20633 0.727783 4.36364V19.6364C0.727783 20.7937 1.20207 21.9036 2.04631 22.7219C2.89055 23.5403 4.03558 24 5.22951 24H20.9855C22.1795 24 23.3245 23.5403 24.1688 22.7219C25.013 21.9036 25.4873 20.7937 25.4873 19.6364V4.36364C25.4873 3.20633 25.013 2.09642 24.1688 1.27808C23.3245 0.459739 22.1795 0 20.9855 0H5.22951ZM4.66679 8.72727C4.66679 7.4253 5.20037 6.17665 6.15013 5.25602C7.0999 4.33539 8.38806 3.81818 9.73124 3.81818H16.4838C17.827 3.81818 19.1152 4.33539 20.0649 5.25602C21.0147 6.17665 21.5483 7.4253 21.5483 8.72727V15.2727C21.5483 16.5747 21.0147 17.8233 20.0649 18.744C19.1152 19.6646 17.827 20.1818 16.4838 20.1818H9.73124C8.38806 20.1818 7.0999 19.6646 6.15013 18.744C5.20037 17.8233 4.66679 16.5747 4.66679 15.2727V8.72727ZM9.73124 4.90909C8.68654 4.90909 7.68464 5.31136 6.94593 6.02741C6.20723 6.74346 5.79223 7.71463 5.79222 8.72727V15.2727C5.79222 16.2854 6.20723 17.2565 6.94593 17.9726C7.68464 18.6886 8.68654 19.0909 9.73124 19.0909H16.4838C17.5285 19.0909 18.5304 18.6886 19.2691 17.9726C20.0078 17.2565 20.4228 16.2854 20.4228 15.2727V8.72727C20.4228 7.71463 20.0078 6.74346 19.2691 6.02741C18.5304 5.31136 17.5285 4.90909 16.4838 4.90909H9.73124ZM18.7347 7.81855C18.7347 8.0597 18.6359 8.29098 18.4599 8.4615C18.284 8.63202 18.0454 8.72782 17.7966 8.72782C17.5479 8.72782 17.3093 8.63202 17.1333 8.4615C16.9574 8.29098 16.8586 8.0597 16.8586 7.81855C16.8586 7.57739 16.9574 7.34611 17.1333 7.17559C17.3093 7.00507 17.5479 6.90927 17.7966 6.90927C18.0454 6.90927 18.284 7.00507 18.4599 7.17559C18.6359 7.34611 18.7347 7.57739 18.7347 7.81855ZM8.79375 12C8.79375 10.891 9.24824 9.82744 10.0572 9.04327C10.8662 8.25909 11.9634 7.81855 13.1075 7.81855C14.2516 7.81855 15.3488 8.25909 16.1578 9.04327C16.9668 9.82744 17.4213 10.891 17.4213 12C17.4213 13.109 16.9668 14.1726 16.1578 14.9567C15.3488 15.7409 14.2516 16.1815 13.1075 16.1815C11.9634 16.1815 10.8662 15.7409 10.0572 14.9567C9.24824 14.1726 8.79375 13.109 8.79375 12ZM13.1075 8.90945C12.2619 8.90945 11.451 9.23506 10.853 9.81465C10.2551 10.3942 9.91918 11.1803 9.91918 12C9.91918 12.8197 10.2551 13.6058 10.853 14.1853C11.451 14.7649 12.2619 15.0905 13.1075 15.0905C13.9531 15.0905 14.7641 14.7649 15.362 14.1853C15.96 13.6058 16.2959 12.8197 16.2959 12C16.2959 11.1803 15.96 10.3942 15.362 9.81465C14.7641 9.23506 13.9531 8.90945 13.1075 8.90945Z" fill="black"/>
<path fill-rule="evenodd" clip-rule="evenodd" d="M34.3033 0C33.0596 0 31.8669 0.459739 30.9875 1.27808C30.1081 2.09642 29.614 3.20633 29.614 4.36364V19.6364C29.614 20.7937 30.1081 21.9036 30.9875 22.7219C31.8669 23.5403 33.0596 24 34.3033 24H50.7159C51.9595 24 53.1523 23.5403 54.0317 22.7219C54.9111 21.9036 55.4052 20.7937 55.4052 19.6364V4.36364C55.4052 3.20633 54.9111 2.09642 54.0317 1.27808C53.1523 0.459739 51.9595 0 50.7159 0H34.3033ZM33.7171 12C33.7171 10.8284 33.7758 9.72327 33.8543 8.796C33.9044 8.12877 34.212 7.50089 34.7205 7.02814C35.2289 6.55539 35.9039 6.26966 36.621 6.22364C38.581 6.10102 40.5451 6.0428 42.5096 6.04909C45.0383 6.04909 46.9785 6.12982 48.3982 6.22364C49.1152 6.26966 49.7902 6.55539 50.2987 7.02814C50.8072 7.50089 51.1148 8.12877 51.1649 8.796C51.2422 9.72327 51.302 10.8284 51.302 12C51.302 13.2142 51.2387 14.3564 51.1566 15.3033C51.0394 16.6549 49.9327 17.6869 48.5049 17.7796C46.5091 17.9002 44.5095 17.9574 42.5096 17.9509C39.9563 17.9509 37.9492 17.8724 36.5143 17.7796C35.0864 17.6869 33.9798 16.6549 33.8625 15.3033C33.7672 14.2044 33.7187 13.1024 33.7171 12ZM40.3244 9.22364L45.3067 12L40.3244 14.7775V9.22364Z" fill="black"/>
<path fill-rule="evenodd" clip-rule="evenodd" d="M64.0335 0C62.8395 0 61.6945 0.459739 60.8503 1.27808C60.006 2.09642 59.5317 3.20633 59.5317 4.36364V19.6364C59.5317 20.7937 60.006 21.9036 60.8503 22.7219C61.6945 23.5403 62.8395 24 64.0335 24H79.7895C80.9834 24 82.1285 23.5403 82.9727 22.7219C83.8169 21.9036 84.2912 20.7937 84.2912 19.6364V4.36364C84.2912 3.20633 83.8169 2.09642 82.9727 1.27808C82.1285 0.459739 80.9834 0 79.7895 0H64.0335ZM69.3027 6.84327C69.3027 5.89649 69.6907 4.98848 70.3812 4.3189C71.0718 3.64933 72.0084 3.27302 72.9851 3.27273H76.2602C76.4852 3.27273 76.6687 3.45055 76.6687 3.66982V6.84327C76.6687 7.06145 76.4852 7.23927 76.2602 7.23927H74.6227C74.4615 7.23927 74.3019 7.27007 74.1529 7.32989C74.004 7.38972 73.8688 7.4774 73.7548 7.58793C73.6409 7.69847 73.5506 7.82968 73.489 7.97407C73.4274 8.11847 73.3958 8.27321 73.3959 8.42945V9.61964H76.2602C76.3223 9.61983 76.3835 9.63372 76.4393 9.66025C76.495 9.68677 76.5438 9.72524 76.582 9.77274C76.6202 9.82024 76.6467 9.87554 76.6596 9.93444C76.6724 9.99334 76.6713 10.0543 76.6563 10.1127L75.8381 13.2873C75.8158 13.3729 75.7645 13.4488 75.6926 13.503C75.6206 13.5572 75.532 13.5864 75.4408 13.5862H73.3948V20.3302C73.3948 20.4355 73.3516 20.5365 73.2748 20.611C73.198 20.6854 73.0938 20.7273 72.9851 20.7273H69.7113C69.6028 20.727 69.4989 20.685 69.4223 20.6106C69.3457 20.5361 69.3027 20.4353 69.3027 20.3302V13.5873H67.2567C67.1481 13.5873 67.0439 13.5454 66.967 13.471C66.8902 13.3965 66.847 13.2955 66.847 13.1902V10.0156C66.847 9.79745 67.0305 9.61964 67.2567 9.61964H69.3027V6.84327Z" fill="black"/>
<path fill-rule="evenodd" clip-rule="evenodd" d="M92.9195 0C91.7255 0 90.5805 0.459739 89.7362 1.27808C88.892 2.09642 88.4177 3.20633 88.4177 4.36364V19.6364C88.4177 20.7937 88.892 21.9036 89.7362 22.7219C90.5805 23.5403 91.7255 24 92.9195 24H108.675C109.869 24 111.014 23.5403 111.859 22.7219C112.703 21.9036 113.177 20.7937 113.177 19.6364V4.36364C113.177 3.20633 112.703 2.09642 111.859 1.27808C111.014 0.459739 109.869 0 108.675 0H92.9195ZM101.18 3.81818H103.867C103.867 5.56364 105.388 7.53818 107.704 7.53818V10.1411C106.11 10.0342 104.747 9.78109 103.867 9.02509V15.7189C103.867 17.5789 102.349 20.1818 98.8797 20.1818C94.6414 20.1818 93.8918 16.4618 93.8918 15.3469C93.8918 14.232 94.5671 10.512 99.2624 10.512V13.116C98.0345 12.864 96.5771 13.8589 96.5771 15.3469C96.5771 17.2069 97.7284 17.5789 98.8797 17.5789C100.03 17.5789 101.181 16.4629 101.181 15.3469L101.18 3.81818Z" fill="black"/>
</svg>
