<svg width="24" height="13" viewBox="0 0 24 13" fill="none" xmlns="http://www.w3.org/2000/svg">
<path d="M14.2081 6.50072C14.2081 3.75817 11.6578 1 8.54746 1C8.17903 1 6.96458 1.00001 6.6606 1.00001C3.53434 1.00001 1 3.46278 1 6.50072C1 9.11855 2.88185 11.3093 5.40269 11.8652C5.80725 11.9544 6.22826 12.0014 6.6606 12.0014" stroke="black" stroke-width="1.53" stroke-linecap="round" stroke-linejoin="round"/>
<path d="M9.8053 6.50072C9.8053 9.24327 12.3556 12.0014 15.4659 12.0014C15.8343 12.0014 17.0488 12.0014 17.3527 12.0014C20.4791 12.0014 23.0134 9.53869 23.0134 6.50072C23.0134 3.88289 21.1315 1.69215 18.6107 1.1363C18.2061 1.04709 17.7851 0.999996 17.3527 0.999996" stroke="black" stroke-width="1.53" stroke-linecap="round" stroke-linejoin="round"/>
</svg>
