<svg width="23" height="21" viewBox="0 0 23 21" fill="none" xmlns="http://www.w3.org/2000/svg">
<path fill-rule="evenodd" clip-rule="evenodd" d="M11.55 0.809601C11.2455 0.809601 10.9474 0.894045 10.6908 1.05297C10.4374 1.20986 10.235 1.43286 10.1068 1.69624L7.67048 6.46392C7.66569 6.47329 7.66112 6.48275 7.65674 6.49232C7.65565 6.49468 7.65393 6.49675 7.65177 6.49828C7.64961 6.49981 7.64706 6.50078 7.6444 6.50106C7.63506 6.50206 7.62573 6.50324 7.61643 6.50458L2.25208 7.27491C1.95559 7.30286 1.67285 7.41071 1.43604 7.58653C1.191 7.76847 1.00565 8.01537 0.902432 8.29734C0.799214 8.5793 0.782559 8.88423 0.854484 9.17519C0.926132 9.46501 1.08261 9.72858 1.30508 9.93423L5.2318 13.6067L5.24075 13.6149C5.24635 13.62 5.25057 13.6264 5.25299 13.6334C5.25542 13.6405 5.25599 13.648 5.25464 13.6553L5.25378 13.6602L4.31806 18.9683L4.31783 18.9696C4.26642 19.2573 4.2992 19.5532 4.41247 19.8236C4.5259 20.0947 4.71551 20.3292 4.95971 20.5009C5.20393 20.6724 5.49293 20.7742 5.79384 20.7944C6.09414 20.8146 6.39428 20.7529 6.66023 20.6163L6.66184 20.6154L11.4951 18.1394C11.5124 18.1322 11.5311 18.1283 11.5501 18.1283C11.569 18.1283 11.5877 18.1322 11.6051 18.1394L16.4383 20.6154L16.4392 20.6159C16.7053 20.7529 17.0056 20.8148 17.3063 20.7944C17.6072 20.7742 17.8962 20.6724 18.1403 20.5009C18.3846 20.3292 18.5741 20.0947 18.6876 19.8236C18.8008 19.5532 18.8336 19.2575 18.7822 18.9699L18.7821 18.9683L17.8463 13.6602L17.8455 13.6553C17.8441 13.648 17.8447 13.6405 17.847 13.6334C17.8495 13.6264 17.8538 13.62 17.8593 13.6149L17.8682 13.6067L21.7951 9.93419C22.0175 9.72854 22.174 9.46499 22.2455 9.17519C22.3175 8.88423 22.3009 8.5793 22.1977 8.29734C22.0944 8.01537 21.9092 7.76847 21.6641 7.58653C21.4273 7.41071 21.1445 7.30286 20.848 7.27491L15.4837 6.50458C15.4744 6.50324 15.465 6.50206 15.4557 6.50106C15.453 6.50078 15.4505 6.49981 15.4483 6.49828C15.4462 6.49675 15.4444 6.49468 15.4434 6.49232C15.439 6.48275 15.4344 6.47329 15.4296 6.46392L12.9933 1.69622C12.865 1.43285 12.6627 1.20985 12.4093 1.05297C12.1527 0.894045 11.8546 0.809601 11.55 0.809601Z" fill="#DD6400"/>
</svg>
