<svg width="12" height="14" viewBox="0 0 12 14" fill="none" xmlns="http://www.w3.org/2000/svg">
<path fill-rule="evenodd" clip-rule="evenodd" d="M11.3713 5.57015C10.2393 5.64703 9.62819 5.61842 9.62819 5.61842L9.46353 12.7611C9.4547 13.1451 9.29197 13.5259 8.91973 13.6207C8.51057 13.7248 7.9841 13.7299 7.57104 13.6365C7.18534 13.5494 7.01404 13.1593 7.0081 12.7639C6.95015 8.91946 6.92859 5.0971 7.04377 1.13828C7.0526 0.834987 7.16039 0.51621 7.4323 0.381535C7.88181 0.158919 8.18806 0.460728 8.38471 0.654543C9.74708 1.99731 11.0577 3.67285 11.7905 4.65573C12.0651 5.02396 11.8296 5.53903 11.3713 5.57015ZM0.831731 8.62333C1.96375 8.54647 2.57486 8.57503 2.57486 8.57503L2.7395 1.43239C2.74835 1.04836 2.91107 0.667551 3.28334 0.572786C3.69246 0.468651 4.21893 0.463581 4.632 0.556956C5.01769 0.64412 5.189 1.03422 5.19496 1.42958C5.25288 5.27402 5.27444 9.09637 5.15927 13.0552C5.15045 13.3585 5.04263 13.6773 4.77073 13.8119C4.32122 14.0346 4.01496 13.7328 3.81832 13.5389C2.45595 12.1962 1.14537 10.5206 0.412502 9.53775C0.137964 9.16954 0.373455 8.65444 0.831731 8.62333Z" fill="black"/>
</svg>
