<svg width="33" height="33" viewBox="0 0 33 33" fill="none" xmlns="http://www.w3.org/2000/svg">
<path d="M0.633306 18.1793C-0.210743 17.1973 -0.211208 15.748 0.632547 14.7657C0.653076 14.7418 0.673605 14.718 0.694136 14.6941C2.67197 12.3946 3.8645 9.51985 4.09302 6.4954V6.4954C4.1906 5.20416 5.21505 4.17907 6.50626 4.08111V4.08111C9.53238 3.85153 12.4089 2.65906 14.71 0.680411C14.7286 0.664456 14.7472 0.648501 14.7657 0.632547C15.748 -0.211208 17.1973 -0.210743 18.1793 0.633306V0.633306C20.5097 2.63622 23.4297 3.84866 26.4937 4.08111V4.08111C27.7848 4.17907 28.8093 5.20416 28.9068 6.4954V6.4954C29.1383 9.55769 30.3648 12.4918 32.3667 14.8207V14.8207C33.2107 15.8028 33.2112 17.252 32.3674 18.2343V18.2343C30.3672 20.5631 29.1383 23.4983 28.9068 26.5594V26.5594C28.8093 27.8508 27.7848 28.8758 26.4937 28.9738C26.4692 28.9756 26.4448 28.9775 26.4203 28.9793C23.4013 29.2069 20.5308 30.3946 18.2343 32.3674V32.3674C17.252 33.2112 15.8028 33.2107 14.8207 32.3667V32.3667C12.5273 30.3955 9.6594 29.2101 6.64368 28.9841C6.59788 28.9807 6.55207 28.9773 6.50624 28.9738C5.21505 28.8758 4.1906 27.8508 4.09302 26.5594V26.5594C3.86032 23.4799 2.64629 20.5214 0.633306 18.1793V18.1793Z" fill="white"/>
</svg>
