<svg width="19" height="18" viewBox="0 0 19 18" fill="none" xmlns="http://www.w3.org/2000/svg">
<path d="M17.925 7.42099L16.4967 6.304C16.3821 6.21511 16.2933 6.09883 16.2389 5.96652C16.1844 5.83422 16.1663 5.69044 16.1862 5.54927L16.3803 3.78322C16.4072 3.54855 16.3796 3.31099 16.2996 3.08807C16.2195 2.86515 16.0889 2.66256 15.9176 2.49523C15.7462 2.3279 15.5384 2.20011 15.3095 2.12129C15.0805 2.04247 14.8363 2.01462 14.5948 2.0398L12.7706 2.22848C12.6254 2.24784 12.4775 2.23019 12.3414 2.17727C12.2053 2.12435 12.0857 2.03797 11.9943 1.92659L10.8687 0.560544C10.7113 0.384551 10.5169 0.243441 10.2986 0.14674C10.0804 0.0500397 9.84327 0 9.6034 0C9.36352 0 9.12644 0.0500397 8.90815 0.14674C8.68987 0.243441 8.49547 0.384551 8.33807 0.560544L7.18919 1.94924C7.09777 2.06061 6.97816 2.14699 6.84208 2.19991C6.706 2.25283 6.55812 2.27048 6.41292 2.25113L4.61196 2.06245C4.37048 2.03726 4.12626 2.06511 3.89733 2.14393C3.66839 2.22276 3.46058 2.35054 3.28922 2.51787C3.11786 2.6852 2.98733 2.8878 2.90725 3.11072C2.82717 3.33364 2.79958 3.57119 2.82653 3.80586L3.0206 5.57191C3.04051 5.71309 3.02236 5.85686 2.96792 5.98917C2.91349 6.12147 2.82465 6.23775 2.71009 6.32664L1.28175 7.42099C1.09232 7.56879 0.939439 7.75606 0.83439 7.96898C0.729341 8.1819 0.674805 8.41504 0.674805 8.65119C0.674805 8.88734 0.729341 9.12047 0.83439 9.33339C0.939439 9.54631 1.09232 9.73358 1.28175 9.88139L2.71009 10.9984C2.82406 11.0877 2.91248 11.2041 2.96685 11.3363C3.02123 11.4684 3.03974 11.612 3.0206 11.7531L2.82653 13.5267C2.79963 13.7609 2.82755 13.9979 2.90821 14.2201C2.98887 14.4423 3.12017 14.6439 3.2923 14.8097C3.46045 14.9804 3.66746 15.1103 3.89668 15.1889C4.12589 15.2676 4.37089 15.2928 4.61196 15.2626L6.4362 15.0739C6.58141 15.0545 6.72929 15.0722 6.86537 15.1251C7.00145 15.178 7.12106 15.2644 7.21248 15.3758L8.36136 16.7645C8.51339 16.9486 8.706 17.0973 8.925 17.1994C9.144 17.3015 9.38379 17.3546 9.62669 17.3546C9.86958 17.3546 10.1094 17.3015 10.3284 17.1994C10.5474 17.0973 10.74 16.9486 10.892 16.7645L12.0409 15.3758C12.1323 15.2644 12.2519 15.178 12.388 15.1251C12.5241 15.0722 12.672 15.0545 12.8172 15.0739L14.6414 15.2626C14.8825 15.2928 15.1275 15.2676 15.3567 15.1889C15.5859 15.1103 15.7929 14.9804 15.9611 14.8097C16.1332 14.6439 16.2645 14.4423 16.3452 14.2201C16.4258 13.9979 16.4537 13.7609 16.4268 13.5267L16.2328 11.7531C16.2136 11.612 16.2321 11.4684 16.2865 11.3363C16.3409 11.2041 16.4293 11.0877 16.5433 10.9984L17.9716 9.88139C18.1611 9.73358 18.3139 9.54631 18.419 9.33339C18.524 9.12047 18.5786 8.88734 18.5786 8.65119C18.5786 8.41504 18.524 8.1819 18.419 7.96898C18.3139 7.75606 18.1611 7.56879 17.9716 7.42099H17.925ZM9.91391 10.9682C9.79429 11.1195 9.64304 11.2445 9.47012 11.3349C9.2972 11.4253 9.10655 11.4791 8.91072 11.4926C8.71489 11.5062 8.51833 11.4792 8.33399 11.4135C8.14965 11.3479 7.98172 11.2449 7.84126 11.1116L5.94715 9.27006C5.87477 9.19969 5.81736 9.11615 5.77819 9.02421C5.73902 8.93227 5.71886 8.83372 5.71886 8.73421C5.71886 8.63469 5.73902 8.53615 5.77819 8.4442C5.81736 8.35226 5.87477 8.26872 5.94715 8.19835C6.01953 8.12798 6.10546 8.07216 6.20002 8.03408C6.29459 7.996 6.39595 7.97639 6.49831 7.97639C6.60066 7.97639 6.70202 7.996 6.79659 8.03408C6.89116 8.07216 6.97708 8.12798 7.04946 8.19835L8.82712 9.89648L11.8624 5.96437C11.9859 5.80424 12.1698 5.69837 12.3736 5.67006C12.4745 5.65605 12.5773 5.66149 12.676 5.68609C12.7748 5.71069 12.8676 5.75396 12.9491 5.81342C13.0307 5.87289 13.0994 5.94739 13.1513 6.03268C13.2033 6.11796 13.2374 6.21235 13.2518 6.31047C13.2663 6.40859 13.2607 6.5085 13.2354 6.60451C13.2101 6.70052 13.1656 6.79075 13.1044 6.87004L9.91391 10.9682Z" fill="black"/>
</svg>
